PathFileType	4	(X/Y/Z)	/Users/itak/Documents/Research/Walk-IL/dataset/trc/00194_00008.trc
DataRate	CameraRate	NumFrames	NumMarkers	Units	OrigDataRate	OrigDataStartFrame	OrigNumFrames
100.000000	100.000000	4	53	mm	100.000000	607	810
Frame#	Time	RPSI			LPSI			L3			STRN			T10			C7			CLAV			RBAK			LBAK			LSHO			LUPA			LAEL			LAOL			LWTS			LWPS			LFRA			LIFD			LHPS			LHTS			RSHO			RUPA			RAEL			RAOL			RWTS			RWPS			RFRA			RIFD			RHTS			RHPS			RBHD			LFHD			RFHD			LBHD			LHIP			RHIP			RASI			LASI			LKNE			LTHI			LANK			LTIP			LTOE			LMT1			LMT5			LHEE			RKNE			RTHI			RANK			RTIP			RTOE			RMT1			RMT5			RHEE			
		X1	Y1	Z1	X2	Y2	Z2	X3	Y3	Z3	X4	Y4	Z4	X5	Y5	Z5	X6	Y6	Z6	X7	Y7	Z7	X8	Y8	Z8	X9	Y9	Z9	X10	Y10	Z10	X11	Y11	Z11	X12	Y12	Z12	X13	Y13	Z13	X14	Y14	Z14	X15	Y15	Z15	X16	Y16	Z16	X17	Y17	Z17	X18	Y18	Z18	X19	Y19	Z19	X20	Y20	Z20	X21	Y21	Z21	X22	Y22	Z22	X23	Y23	Z23	X24	Y24	Z24	X25	Y25	Z25	X26	Y26	Z26	X27	Y27	Z27	X28	Y28	Z28	X29	Y29	Z29	X30	Y30	Z30	X31	Y31	Z31	X32	Y32	Z32	X33	Y33	Z33	X34	Y34	Z34	X35	Y35	Z35	X36	Y36	Z36	X37	Y37	Z37	X38	Y38	Z38	X39	Y39	Z39	X40	Y40	Z40	X41	Y41	Z41	X42	Y42	Z42	X43	Y43	Z43	X44	Y44	Z44	X45	Y45	Z45	X46	Y46	Z46	X47	Y47	Z47	X48	Y48	Z48	X49	Y49	Z49	X50	Y50	Z50	X51	Y51	Z51	X52	Y52	Z52	X53	Y53	Z53	

608	6.07	885.6024780273438	1039.05078125	2.40705132484436	1003.665161132812	1044.25927734375	-32.153076171875	940.9656372070312	1080.133666992188	-14.67890930175781	1008.009887695312	1300.215209960938	226.5495300292969	930.4755859375	1240.598510742188	-58.42840576171875	951.4160766601562	1511.180908203125	-0.1001785844564438	1004.812072753906	1413.765625	193.9841461181641	835.4924926757812	1332.411010742188	-36.17939376831055	1045.412719726562	1491.908935546875	-36.0511360168457	1142.368041992188	1483.83984375	13.99148941040039	1200.091430664062	1350.530883789062	-41.85548782348633	1214.914672851562	1133.256591796875	-32.92365646362305	1127.12939453125	1115.556030273438	-37.62701034545898	1242.06494140625	906.1611938476562	87.35110473632812	1237.456420898438	880.2703247070312	-2.69640326499939	1232.67431640625	1022.623901367188	-23.35803604125977	1229.648193359375	722.273193359375	116.1546249389648	1243.842407226562	811.81103515625	19.49590873718262	1264.061645507812	825.9995727539062	88.36373138427734	795.2197265625	1487.643310546875	104.355094909668	725.9320068359375	1420.576171875	97.69992065429688	668.7765502929688	1132.024169921875	80.08648681640625	766.13671875	1126.899780273438	61.77312088012695	726.42529296875	928.7352905273438	245.9329223632812	673.8508911132812	895.1571655273438	180.0203552246094	660.3405151367188	1059.9833984375	115.4516754150391	773.5673828125	750.8331909179688	287.2279052734375	730.084228515625	841.183349609375	288.0257568359375	688.3351440429688	818.53857421875	220.7030944824219	891.3798217773438	1675.144287109375	105.3787231445312	1038.640991210938	1690.5927734375	264.8987426757812	912.2129516601562	1674.042236328125	279.3406066894531	1025.792114257812	1702.5205078125	85.65174865722656	1147.82080078125	990.255859375	24.00092697143555	814.0158081054688	999.8877563476562	189.1571960449219	886.996826171875	1034.849609375	249.0225219726562	1131.310546875	1039.709228515625	166.9367523193359	1224.333862304688	509.2803344726562	175.4229431152344	1216.659301757812	652.7335815429688	139.4035949707031	1116.658813476562	184.1269836425781	-171.8164215087891	1189.170532226562	349.4711303710938	10.220458984375	1165.227905273438	56.62207412719727	-6.601265907287598	1106.622680664062	87.51130676269531	-20.50920677185059	1177.65673828125	104.1878280639648	-120.413932800293	1040.288940429688	218.8290252685547	-174.8923492431641	937.2069091796875	505.8195190429688	242.3612213134766	860.9860229492188	772.2672119140625	266.6612548828125	984.4328002929688	33.21783828735352	141.9103851318359	975.5231323242188	386.6910400390625	247.6610565185547	1057.087158203125	39.97160339355469	354.8968811035156	1091.690673828125	37.07366561889648	293.6410522460938	971.5537109375	38.32011032104492	258.5933532714844	1041.508056640625	29.29732322692871	81.13435363769531	
609	6.08	887.7048950195312	1039.38720703125	7.938735008239746	1006.156494140625	1044.766357421875	-24.9565486907959	943.0224609375	1080.5986328125	-8.292858123779297	1007.374389648438	1300.80859375	233.7129974365234	932.438232421875	1241.165649414062	-51.95199584960938	952.9306640625	1511.719604492188	6.556458950042725	1004.673583984375	1414.405517578125	201.0457153320312	837.1697387695312	1333.094970703125	-30.46439361572266	1047.200561523438	1492.381225585938	-28.64670562744141	1143.70458984375	1484.281127929688	22.19428253173828	1201.919189453125	1351.0068359375	-33.20639419555664	1217.088623046875	1133.71435546875	-23.9736328125	1129.446044921875	1115.787109375	-29.45829772949219	1244.418823242188	908.3068237304688	99.64508819580078	1240.61474609375	881.1063232421875	9.93455696105957	1235.297973632812	1023.106750488281	-12.97405910491943	1233.802001953125	724.773193359375	131.8680267333984	1247.342407226562	813.1657104492188	33.34405899047852	1267.066284179688	828.6279907226562	102.1329498291016	795.8527221679688	1488.462158203125	109.7276840209961	726.4813842773438	1421.419921875	102.7018890380859	669.57177734375	1132.571166992188	85.54972839355469	766.9804077148438	1127.62255859375	67.48797607421875	727.9137573242188	930.9082641601562	253.1400299072266	675.6591796875	896.4426879882812	187.4632263183594	661.3670043945312	1060.842407226562	121.3022689819336	776.017578125	753.6996459960938	296.1862182617188	732.0140991210938	843.7920532226562	296.0628356933594	690.5281372070312	820.263916015625	228.8936462402344	892.3818359375	1675.830322265625	111.7875366210938	1038.662353515625	1690.965942382812	272.2079162597656	912.141845703125	1674.62939453125	285.8746643066406	1026.95654296875	1703.014770507812	92.83794403076172	1149.555908203125	991.0662841796875	33.50518417358398	813.3523559570312	999.781494140625	193.4513092041016	885.2987670898438	1035.039184570312	254.5865783691406	1130.643676757812	1040.721557617188	176.0512847900391	1223.755004882812	511.6103820800781	193.6233673095703	1217.081787109375	654.4906005859375	155.1197357177734	1127.455932617188	176.0607299804688	-147.1731567382812	1193.667602539062	347.3417358398438	31.53349113464355	1176.389038085938	56.38114166259766	23.43166732788086	1117.363159179688	85.08614349365234	7.469261169433594	1189.643920898438	99.89736175537109	-91.70858764648438	1050.265625	208.6825256347656	-152.8504028320312	935.8668823242188	505.30126953125	243.6823272705078	859.41064453125	771.5337524414062	270.0645141601562	984.613525390625	33.11046981811523	141.9788665771484	974.537353515625	386.335205078125	248.7089385986328	1057.029541015625	39.86111068725586	354.9156494140625	1091.608642578125	37.16150283813477	293.6966247558594	971.3128051757812	38.11906433105469	258.5643005371094	1042.7119140625	28.88267517089844	81.36161804199219	
610	6.09	889.8347778320312	1039.6845703125	13.39883804321289	1008.675842285156	1045.23486328125	-17.78181457519531	945.1168212890625	1081.015014648438	-1.95643138885498	1006.638244628906	1301.303955078125	240.8472137451172	934.478515625	1241.660888671875	-45.54218673706055	954.4801025390625	1512.187255859375	13.16547679901123	1004.413635253906	1414.893798828125	208.1312255859375	838.902099609375	1333.694091796875	-24.85356712341309	1049.047729492188	1492.771240234375	-21.24942016601562	1145.051147460938	1484.617309570312	30.46084022521973	1203.793090820312	1351.380859375	-24.44752502441406	1219.412963867188	1134.121948242188	-14.90420055389404	1131.93798828125	1115.902954101562	-21.25201225280762	1246.873901367188	910.3340454101562	111.9093475341797	1243.988159179688	881.9774780273438	22.50214958190918	1238.1025390625	1023.566467285156	-2.527657747268677	1237.959350585938	727.303466796875	147.3381805419922	1251.055908203125	814.5776977539062	47.10740280151367	1270.201782226562	831.222900390625	115.8226547241211	796.4732055664062	1489.191772460938	114.9877548217773	727.0073852539062	1422.180541992188	107.5523910522461	670.3619995117188	1133.030639648438	90.80239868164062	767.8201293945312	1128.267822265625	73.00676727294922	729.3334350585938	932.968505859375	260.0885620117188	677.4194946289062	897.6278076171875	194.6427612304688	662.361572265625	1061.615600585938	126.9501724243164	778.357666015625	756.4681396484375	304.8648986816406	733.8499145507812	846.2952270507812	303.8201293945312	692.6630859375	821.8949584960938	236.8059234619141	893.355712890625	1676.41552734375	118.1026153564453	1038.59619140625	1691.31494140625	279.4471130371094	911.9944458007812	1675.188110351562	292.3060607910156	1028.088134765625	1703.419555664062	99.95277404785156	1151.314697265625	991.9193115234375	43.24390029907227	812.7147827148438	999.6555786132812	197.6257171630859	883.60791015625	1035.178833007812	260.052490234375	1129.938720703125	1041.661010742188	185.1322937011719	1222.647094726562	513.8929443359375	211.4627838134766	1217.061889648438	656.1435546875	170.6446228027344	1137.965576171875	167.7049865722656	-121.836051940918	1197.795776367188	345.0028381347656	52.94195175170898	1186.927490234375	56.02122497558594	53.94691848754883	1127.607055664062	82.50057983398438	36.03468704223633	1201.148315429688	95.50226593017578	-62.37094116210938	1060.053100585938	198.0877380371094	-130.0731201171875	934.5178833007812	504.7868347167969	244.9307403564453	857.7706298828125	770.7429809570312	273.0633850097656	984.7521362304688	33.02402114868164	142.0208129882812	973.5541381835938	385.9716186523438	249.7079925537109	1056.984008789062	39.75386428833008	354.9328002929688	1091.538818359375	37.24148559570312	293.7478942871094	971.0797119140625	37.93246841430664	258.5276489257812	1044.097290039062	28.4140625	81.62384033203125	
611	6.100000000000001	891.9949951171875	1039.942260742188	18.79258918762207	1011.221740722656	1045.649291992188	-10.62240505218506	947.2564697265625	1081.37255859375	4.341434001922607	1005.8056640625	1301.702270507812	247.9506988525391	936.5987548828125	1242.084106445312	-39.19356155395508	956.0673217773438	1512.583740234375	19.73099136352539	1004.035888671875	1415.231567382812	215.2404174804688	840.6965942382812	1334.2080078125	-19.34098434448242	1050.951049804688	1493.075439453125	-13.84717655181885	1146.408569335938	1484.854858398438	38.7900505065918	1205.713745117188	1351.657836914062	-15.5708703994751	1221.880981445312	1134.478515625	-5.696589469909668	1134.6015625	1115.906127929688	-12.98625373840332	1249.411743164062	912.2307739257812	124.1380310058594	1247.550415039062	882.8805541992188	34.99104690551758	1241.074829101562	1024.004516601562	7.986720085144043	1242.12646484375	729.8487548828125	162.5488128662109	1254.941162109375	816.0118408203125	60.7774543762207	1273.445190429688	833.7639770507812	129.4058685302734	797.0848388671875	1489.836303710938	120.1351623535156	727.5184326171875	1422.85791015625	112.2488250732422	671.159423828125	1133.408813476562	95.85157012939453	768.670166015625	1128.839477539062	78.34521484375	730.6751708984375	934.900146484375	266.7785034179688	679.124755859375	898.7024536132812	201.5601196289062	663.3245849609375	1062.2802734375	132.4057464599609	780.5660400390625	759.1110229492188	313.2420043945312	735.5798950195312	848.6696166992188	311.2889709472656	694.740966796875	823.4168090820312	244.4361572265625	894.2972412109375	1676.89794921875	124.3364410400391	1038.441162109375	1691.62841796875	286.6304931640625	911.7611083984375	1675.702392578125	298.6370544433594	1029.186889648438	1703.73681640625	107.0140914916992	1153.065795898438	992.77099609375	53.08843994140625	812.1095581054688	999.5083618164062	201.6938323974609	881.9170532226562	1035.27490234375	265.4407348632812	1129.203002929688	1042.513671875	194.1743621826172	1221.041015625	516.1006469726562	228.9040222167969	1216.6064453125	657.6696166992188	185.9345397949219	1148.12890625	159.1568756103516	-95.81436920166016	1201.55908203125	342.4938354492188	74.44071960449219	1196.636474609375	55.62222671508789	84.97218322753906	1137.133911132812	79.79921722412109	65.14959716796875	1212.02294921875	91.03868103027344	-32.38516998291016	1069.625244140625	187.185791015625	-106.5923309326172	933.19482421875	504.2828979492188	246.1424560546875	856.0855102539062	769.8956909179688	275.6766357421875	984.8184814453125	32.97230529785156	142.0304565429688	972.5875244140625	385.5938110351562	250.6766204833984	1056.95947265625	39.64542770385742	354.9516906738281	1091.4873046875	37.31596755981445	293.8031005859375	970.8607177734375	37.76493453979492	258.4888610839844	1045.438598632812	27.97230911254883	81.87807464599609	
